<?xml version="1.0" encoding="UTF-8"?>
<svg id="Layer_1" data-name="Layer 1" xmlns="http://www.w3.org/2000/svg" viewBox="0 0 180 180">
  <defs>
    <style>
      .cls-1 {
        fill: #93d124;
      }
    </style>
  </defs>
  <g id="_レイヤー-1" data-name="レイヤー-1">
    <g>
      <path class="cls-1" d="M91.34,14.93c-4.57,0-9.09.41-13.53,1.21C41.15,22.72,14.05,55.21,14.05,93.46c0,17.4,5.6,33.97,15.76,47.53l9.44-7.32c-8.59-11.48-13.3-25.48-13.3-40.21,0-32.37,22.95-59.87,53.95-65.43,3.75-.67,7.57-1.02,11.44-1.02v-12.08ZM148.23,40.3l-8.73,8.19c11.03,12.18,17.24,28.07,17.24,44.97,0,10.56-2.4,20.74-6.98,29.94-4.08,8.2-9.82,15.48-16.8,21.33-5.68,4.77-12.14,8.51-19.06,11.1-7.16,2.67-14.76,4.08-22.56,4.08-8.59,0-16.93-1.68-24.71-4.91l-4.5,11.18c9.2,3.82,19.06,5.82,29.21,5.82,9.21,0,18.21-1.63,26.68-4.79,8.19-3.06,15.77-7.51,22.48-13.14,8.24-6.91,15.02-15.49,19.84-25.18,5.42-10.89,8.29-22.95,8.29-35.42,0-19.96-7.37-38.77-20.4-53.16Z"/>
      <path class="cls-1" d="M122.74,19.95c-3.67-.34-7.91.73-12.3,3.4-6.99,4.26-16.91,17.85-27.24,35.6-3.37.73-12.23,2.63-14.23,3.1-7.49,1.74-12.51,3.25-16.02,4.87l5.17,11.52c2.5-1.16,6.95-2.44,13.64-4,.46-.11,2.17-.47,3.31-.72-2.89,5.53-5.8,11.04-8.62,17.03-2.12,4.5-5.07,11.6-8.77,20.92-.32.81-11.57,29.88-11.63,30.02-.66,1.52-2.31,5.41-2.34,5.48l11.44,5.02c.02-.06,1.69-3.9,2.34-5.4.1-.23,3.26-8.4,5.69-14.73,1.41-.64,2.9-1.22,4.53-1.7,1.91-.57,3.92-.97,6.06-1.17,2.14-.2,4.44-.07,6.87.38,2.43.45,4.95,1.34,7.54,2.68,3.89,2.01,7.69,4.66,11.44,7.97,3.76,3.3,7.65,6.84,11.67,10.65,4.01,3.81,8.1,7.48,12.26,10.99,4.16,3.51,8.6,6.49,13.3,8.91,5.35,2.76,11.13,4.58,17.32,5.48,6.18.89,12.98.11,20.36-2.42l-5.17-14.24c-5.48,2.39-10.38,3.44-14.71,3.13-4.33-.31-8.44-1.47-12.34-3.47-3.73-1.92-7.32-4.51-10.81-7.74-3.49-3.23-7.03-6.6-10.55-10.16-3.53-3.56-7.33-7.06-11.41-10.53-4.08-3.47-8.55-6.48-13.41-8.99-7.79-4.02-14.79-6.13-21.03-6.31-1.91-.05-3.75.2-5.61.34,3.47-8.73,6.29-15.59,8.21-19.67,4.42-9.4,9.01-18.02,13.53-26.09,17.35-3.85,26.65-6.6,31.7-10.65,8.44-6.77,12.99-17.9,11.59-27.11-.31-2.01-.87-3.81-1.65-5.37-2.07-4.13-5.69-6.6-10.13-7.01ZM121.59,32.56s0,0,.07.11c.21.32.41.85.52,1.59.7,4.61-2.02,11.23-6.99,15.22-2.02,1.62-7.56,3.39-15.01,5.36,6.81-10.68,12.84-18.28,16.68-20.61,1.53-.93,2.81-1.44,3.79-1.62.55-.1.81-.08.93-.04Z"/>
    </g>
  </g>
</svg>